<?xml version="1.0" encoding="UTF-8"?>
<svg xmlns="http://www.w3.org/2000/svg" width="1088" height="364" viewBox="0 0 1088 364" fill="none">
  <path d="M1064.36 140.042L801.08 5.73286C787.621 -1.11224 771.603 -0.509144 758.716 7.39137C745.859 15.2919 738 29.3138 738 44.4213V320.577C738 335.866 746.009 350.008 759.107 357.848C765.942 361.949 773.65 364 781.358 364C788.404 364 795.48 362.281 801.893 358.813L1065.17 216.996C1079.39 209.337 1088.18 194.41 1088 178.278C1087.82 162.145 1078.69 147.399 1064.33 140.072L1064.36 140.042Z" fill="black"></path>
  <path d="M457.406 24.617L317.911 298.422C310.791 312.418 311.455 329.099 319.63 342.462C327.836 355.855 342.407 364 358.094 364H644.899C660.767 364 675.489 355.644 683.604 342.04C687.858 334.921 690 326.928 690 318.904C690 311.574 688.22 304.214 684.6 297.547L537.321 23.7423C529.387 8.96155 513.881 -0.178349 497.107 0.00263913C480.334 0.183627 465.039 9.6855 457.406 24.617Z" fill="black"></path>
  <path d="M232.594 339.383L372.089 65.578C379.209 51.5816 378.545 34.9006 370.37 21.5376C362.164 8.14447 347.593 0 331.906 0H45.1008C29.2326 0 14.5409 8.35562 6.39557 21.9599C2.14191 29.0788 0 37.0724 0 45.0962C0 52.4262 1.7799 59.7864 5.40003 66.4528L152.679 340.258C160.613 355.038 176.119 364.178 192.893 363.997C209.666 363.816 224.961 354.315 232.594 339.383Z" fill="black"></path>
</svg>
