<svg width="390" height="512" viewBox="0 0 390 512" fill="none" xmlns="http://www.w3.org/2000/svg">
<path d="M385.605 124.392L265.608 4.395C262.807 1.593 258.984 0 255 0H45C20.187 0 0 20.187 0 45V467C0 491.813 20.187 512 45 512H345C369.813 512 390 491.813 390 467V135C390 130.91 388.283 127.069 385.605 124.392ZM270 51.213L338.787 120H285C276.729 120 270 113.271 270 105V51.213ZM345 482H45C36.729 482 30 475.271 30 467V45C30 36.729 36.729 30 45 30H240V105C240 129.813 260.187 150 285 150H360V467C360 475.271 353.271 482 345 482Z" fill="black"/>
<path d="M285 212H105C96.716 212 90 218.716 90 227C90 235.284 96.716 242 105 242H285C293.284 242 300 235.284 300 227C300 218.716 293.284 212 285 212Z" fill="black"/>
<path d="M285 272H105C96.716 272 90 278.716 90 287C90 295.284 96.716 302 105 302H285C293.284 302 300 295.284 300 287C300 278.716 293.284 272 285 272Z" fill="black"/>
<path d="M285 332H105C96.716 332 90 338.716 90 347C90 355.284 96.716 362 105 362H285C293.284 362 300 355.284 300 347C300 338.716 293.284 332 285 332Z" fill="black"/>
<path d="M225 392H105C96.716 392 90 398.716 90 407C90 415.284 96.716 422 105 422H225C233.284 422 240 415.284 240 407C240 398.716 233.284 392 225 392Z" fill="black"/>
</svg>
